<!-- Created with Inkscape (http://www.inkscape.org/) -->
<svg width="26.8mm" height="26.373mm" version="1.1" viewBox="0 0 26.8 26.373" xmlns="http://www.w3.org/2000/svg">
 <g transform="translate(-45.377 -69.328)">
  <g fill="#333">
   <path d="m55.294 78.52c-0.46447-0.35747-1.168-1.4663-1.1687-1.8419-9.81e-4 -0.49513 0.36539-0.38801 1.0647 0.31133 0.63321 0.63321 0.88485 1.1739 0.73191 1.5724-0.10501 0.27375-0.22853 0.26552-0.62792-0.04185z"/>
   <path d="m58.7 77.632c-0.31698-0.90931-0.0694-2.4427 0.39435-2.4427 0.3204 0 0.45076 0.3865 0.44246 1.3117-0.0059 0.68911-0.32284 1.562-0.56663 1.562-0.06596 0-0.18755-0.19392-0.27018-0.43095z"/>
   <path d="m59.083 69.499c-0.50262 0.0071-1.0331 0.29182-1.6201 0.85416-0.7742 0.74174-1.0577 0.83149-1.6409 0.5194-1.3267-0.71003-2.1373-0.45752-2.6771 0.83438-0.45684 1.0934-0.63962 1.2123-1.8666 1.2123-1.5893 0-1.9018 0.36774-1.7986 2.1171 0.0689 1.1672-0.01816 1.3056-0.95104 1.5105-1.6111 0.35386-1.9542 0.98987-1.4151 2.6233 0.43514 1.3185 0.41397 1.4247-0.46766 2.3449-1.1403 1.1902-1.1406 1.2774-0.0039 2.3307 0.86907 0.80543 0.89701 0.92856 0.50367 2.2414-0.49233 1.6432-0.36501 1.9216 1.1762 2.5655 1.0381 0.43374 1.1787 0.65317 1.2746 1.9858 0.10713 1.4892 0.11639 1.4986 1.545 1.6028 1.2159 0.08865 1.5018 0.26016 1.8554 1.1139 0.66632 1.6087 1.1871 1.8729 2.4504 1.2427 1.1544-0.57589 1.5913-0.47328 2.3276 0.54729h-5.2e-4c0.66923 0.92762 1.9748 0.78129 2.7704-0.31093 0.6201-0.85126 0.76903-0.89952 1.6033-0.51939 1.5792 0.71953 2.2621 0.52659 2.8136-0.7933 0.45757-1.0951 0.6383-1.2118 1.8747-1.2118 1.583 0 2.0913-0.62906 1.8402-2.2784-0.14593-0.95877-0.04917-1.099 0.95763-1.3878 1.6285-0.46705 1.9851-1.2226 1.2777-2.706-0.57015-1.1956-0.5655-1.2265 0.27339-1.8864 1.0862-0.8541 1.0894-2.0166 0.0088-2.8668-0.81406-0.64034-0.82564-0.70905-0.32461-1.9082 0.65295-1.5627 0.46415-2.0531-1.0317-2.6781-1.0394-0.43428-1.1925-0.65506-1.1925-1.7195 0-1.6842-0.25277-1.9594-1.7986-1.9594-1.2171 0-1.3829-0.11206-1.7763-1.2001-0.53895-1.4904-1.052-1.7007-2.5863-1.0596-1.1516 0.48115-1.2389 0.46573-1.9477-0.34947-0.47594-0.54738-0.95057-0.81813-1.4532-0.81105zm0.09334 0.97691 0.87495 0.87546c0.89452 0.89452 2.0817 1.1493 2.4651 0.52903 0.39028-0.63149 1.5582-0.39044 1.5582 0.32158 0 1.0179 0.95638 1.756 2.2754 1.756 1.1212 0 1.1869 0.06567 1.1869 1.1869 0 1.1798 0.71563 2.2709 1.4963 2.281 1.0819 0.01405 1.3003 0.53936 0.76084 1.8306-0.51613 1.2353-0.50516 1.292 0.44331 2.3535l0.97184 1.088-0.98147 0.98147c-0.96586 0.96586-0.97317 1.0022-0.44331 2.2703 0.54873 1.3133 0.33549 1.8393-0.7512 1.8534-0.78067 0.01013-1.4963 1.1007-1.4963 2.2805 0 1.1346-0.05546 1.1874-1.2599 1.1874-1.3211 0-2.1715 0.70516-2.1917 1.8179-0.01296 0.7139-0.41966 0.75314-1.9736 0.19122-1.0538-0.38106-1.2247-0.33925-2.1156 0.51432l-0.96879 0.92822-0.92061-0.92061c-0.87545-0.87545-0.99135-0.89946-2.3581-0.48998-1.6358 0.4901-1.5143 0.54167-1.9553-0.82931-0.30088-0.9353-0.49608-1.0493-1.9634-1.1448l-1.1108-0.10601-0.30536-1.1392c0.24132-1.2863-0.36662-2.1417-1.7722-2.4945-0.99629-0.25006-0.96756-0.0962-0.31093-1.6677 0.52389-1.2538 0.51718-1.283-0.53005-2.3302l-1.0601-1.0601 0.9206-0.79177c0.92637-0.79601 1.0201-1.751 0.3297-3.3614-0.19169-0.44711-0.04064-0.64465 0.61831-0.81003 1.3338-0.33475 2.039-1.3102 1.8438-2.5493-0.16244-1.0308-0.1219-1.0704 1.1002-1.0753 1.598-0.0067 2.0176-0.27699 2.3236-1.4963 0.25392-1.0117 0.20084-1.0033 2.4367-0.37991 0.48322 0.13472 1.0763-0.09682 1.7925-0.69946z" stroke-width=".34626"/>
   <path d="m62.633 78.953c-0.14896-0.14896-0.09776-0.69227 0.10136-1.0775 0.25312-0.48948 1.0923-1.2138 1.3487-1.1641 0.36613 0.07104 0.31169 0.31422-0.25871 1.1554-0.56102 0.82734-1.0262 1.2514-1.1914 1.0863z"/>
  </g>
  <path d="m55.925 86.308c-2.197-2.2409-3.0741-3.2452-2.9798-3.4118 0.07352-0.12991 0.74874-0.9341 1.5005-1.7871l1.3668-1.5509 6.328-4e-3 1.7035 1.7099 1.7034 1.7099-6.5089 6.5089zm3.9167-0.14378c0.37498-0.7815 0.6982-1.6464 0.71826-1.9221l0.03642-0.5012-1.3403-0.05016c-1.5196-0.05693-1.8881 0.10636-1.6505 0.73126 0.2929 0.77038 1.4161 3.1631 1.4848 3.1631 0.03828 0 0.37634-0.63941 0.75132-1.4209zm2.6821-1.27 1.0786-1.1533-0.54422-0.05526c-1.1401-0.11585-1.6147 0.32633-1.94 1.8072-0.18933 0.862 0.19112 0.69996 1.4056-0.59868zm-5.2591 0.8913c0-0.30605-0.90968-1.8059-1.1845-1.953-0.41519-0.2222-1.2074-0.23124-1.2074-0.01374 0 0.27821 1.8342 2.0579 2.1209 2.0579 0.14908 0 0.27108-0.04103 0.27108-0.09109zm-0.79084-3.7104c0.49783-0.65425 0.72354-1.4108 0.468-1.5687-0.36886-0.22797-1.4966 0.63034-2.3979 1.825-0.20756 0.2751-0.15634 0.299 0.64092 0.299 0.777 0 0.91013-0.05732 1.289-0.55527zm4.2051 0.25628c-2e-3 -0.16445-0.17648-0.60653-0.38875-0.98241-0.33991-0.6019-0.46934-0.68955-1.0852-0.73484-0.60481-0.04446-0.76001 0.02071-1.1489 0.48295-0.47544 0.56502-0.59361 1.2759-0.23609 1.4201 0.11746 0.04741 0.80941 0.09227 1.5377 0.09967 1.1533 0.01178 1.3238-0.02513 1.3213-0.28551zm2.7865-0.30681c-0.53844-0.68364-1.8985-1.6545-2.1233-1.5156-0.39161 0.24203 0.0079 1.3651 0.67866 1.9079 0.14517 0.11746 0.63695 0.21356 1.0928 0.21356h0.82889z" fill="#064273"/>
 </g>
</svg>
