<!-- Created with Inkscape (http://www.inkscape.org/) -->
<svg width="26.8mm" height="26.373mm" version="1.1" viewBox="0 0 26.8 26.373" xmlns="http://www.w3.org/2000/svg">
 <g transform="translate(-45.377 -69.328)">
  <g fill="#333">
   <path d="m56.375 95.49c-4.085-0.85472-7.655-3.6121-9.4749-7.3181-0.89881-1.8304-1.5234-2.5542-1.5234-5.9028 0-4.6164 1.1568-5.9879 4.3119-9.1404 2.8314-2.8291 5.2362-3.8324 9.1079-3.7997 2.8906 0.02438 4.7147 0.51682 4.4819 1.21-0.10752 0.32009-1.0458 0.40632-3.4683 0.31873-4.2727-0.15448-6.5349 0.61931-9.0508 3.0958-2.4569 2.4184-3.9047 4.4822-4.0726 7.9603-0.17824 3.6926 1.1827 6.0096 3.5943 8.538 2.0419 2.1408 3.7271 3.0791 6.4264 3.5781 5.3423 0.98758 10.241-1.5393 12.887-6.648 0.82456-1.5915 1.0053-2.3841 1.0053-4.4097 4.9e-5 -1.3582-0.115-2.9854-0.25567-3.616-0.21984-0.98551-0.16024-1.1465 0.42439-1.1465 0.48545 0 0.78532 0.37869 1.0475 1.3229 1.1929 4.2953-0.65345 9.7881-4.3893 13.058-2.72 2.3809-7.5161 3.6391-11.052 2.8992z"/>
   <path d="m55.718 91.169c-2.0193-0.78233-3.9261-2.4981-4.898-4.4075-1.2393-2.4346-1.4352-4.4146-0.69255-7.0006 1.0764-3.7483 5.148-6.765 8.6769-6.429 1.967 0.1873 1.5765 1.1294-0.57697 1.3923-2.5087 0.30622-4.2053 1.2092-5.4488 2.9001-4.1513 5.645-0.07464 13.084 6.8554 12.509 3.6562-0.3032 6.3447-2.9077 7.0099-6.7909 0.41364-2.4148 0.5877-2.6524 1.3076-1.785 0.53183 0.64081 0.23642 2.5203-0.74914 4.7664-1.4557 3.3176-4.0017 4.9842-7.8907 5.1656-1.406 0.06556-2.9535-0.0724-3.5935-0.32035z" stroke-width=".35278"/>
   <path d="m56.277 86.982c-2.6064-1.5116-3.4212-4.9932-1.7422-7.4448 1.4289-2.0865 4.9525-3.282 4.9525-1.6803 0 0.49611-0.23562 0.70595-0.79375 0.70687-2.5491 0.0042-4.3256 2.9072-3.2863 5.3701 1.4724 3.4891 6.2477 2.9557 7.262-0.81107 0.48975-1.8188 1.4042-1.8811 1.4042-0.09574 0 3.5357-4.5443 5.8409-7.7963 3.9549z" stroke-width=".35278"/>
  </g>
  <path d="m58.62 82.852c-0.18417-0.22191 0.29811-0.92361 1.6503-2.4011 2.2173-2.4228 2.537-2.9017 2.8469-4.2642 0.09804-0.43105 0.32508-1.0407 0.50453-1.3547 0.65581-1.1476 3.5897-3.9881 4.0482-3.9193 0.36055 0.05415 0.64358 0.55042 0.76967 1.3495 0.06436 0.40787 0.19169 0.79841 0.28296 0.86788 0.09128 0.06947 0.55968 0.15608 1.0409 0.19248 1.0758 0.08136 1.3213 0.25444 1.0179 0.7175-0.72274 1.103-3.5281 3.8241-4.3396 4.2092-2.8495 0.68473-4.1 1.9538-5.4579 3.2297-1.4928 1.4052-2.0624 1.7361-2.3638 1.373zm8.0993-6.6021c1.0517-0.58911 1.5993-1.0104 1.5993-1.2535 0-0.1368-0.16533-0.30076-0.4494-0.44569-0.50921-0.25978-0.5867-0.35573-0.68739-0.85115-0.05213-0.25647-0.14497-0.36337-0.33993-0.39137-0.2082-0.02991-0.46608 0.16282-1.1524 0.86124-0.48631 0.49487-0.46456 0.5853-0.59843 0.8477-1.9766 3.4657-1.7504 3.1253 1.6283 1.2328z" fill="#064273"/>
 </g>
</svg>
