<?xml version="1.0" encoding="UTF-8" standalone="no"?>
<!-- Created with Inkscape (http://www.inkscape.org/) -->

<svg
   xmlns:dc="http://purl.org/dc/elements/1.1/"
   xmlns:cc="http://creativecommons.org/ns#"
   xmlns:rdf="http://www.w3.org/1999/02/22-rdf-syntax-ns#"
   xmlns:svg="http://www.w3.org/2000/svg"
   xmlns="http://www.w3.org/2000/svg"
   xmlns:sodipodi="http://sodipodi.sourceforge.net/DTD/sodipodi-0.dtd"
   xmlns:inkscape="http://www.inkscape.org/namespaces/inkscape"
   width="210mm"
   height="297mm"
   viewBox="0 0 210 297"
   version="1.1"
   id="svg2021"
   inkscape:version="0.92.4 (5da689c313, 2019-01-14)"
   sodipodi:docname="mission_vision.svg">
  <defs
     id="defs2015" />
  <sodipodi:namedview
     id="base"
     pagecolor="#ffffff"
     bordercolor="#666666"
     borderopacity="1.0"
     inkscape:pageopacity="0.0"
     inkscape:pageshadow="2"
     inkscape:zoom="1.0729879"
     inkscape:cx="304.51565"
     inkscape:cy="832.5607"
     inkscape:document-units="mm"
     inkscape:current-layer="layer1"
     showgrid="false"
     inkscape:window-width="1920"
     inkscape:window-height="1017"
     inkscape:window-x="-8"
     inkscape:window-y="-8"
     inkscape:window-maximized="1" />
  <metadata
     id="metadata2018">
    <rdf:RDF>
      <cc:Work
         rdf:about="">
        <dc:format>image/svg+xml</dc:format>
        <dc:type
           rdf:resource="http://purl.org/dc/dcmitype/StillImage" />
        <dc:title></dc:title>
      </cc:Work>
    </rdf:RDF>
  </metadata>
  <g
     inkscape:label="Layer 1"
     inkscape:groupmode="layer"
     id="layer1">
    <path
       style="fill:#333333;fill-opacity:1;stroke:none;stroke-width:0.35277778"
       d="m 56.374872,95.489819 c -4.085027,-0.854724 -7.654985,-3.612067 -9.474876,-7.318149 -0.898813,-1.83037 -1.523428,-2.554189 -1.523428,-5.902759 0,-4.616355 1.156785,-5.987916 4.311867,-9.140443 2.831408,-2.829117 5.236233,-3.832394 9.107863,-3.799742 2.890609,0.02438 4.714717,0.516824 4.48189,1.209954 -0.107516,0.32009 -1.045802,0.40632 -3.468257,0.318734 -4.272675,-0.15448 -6.534859,0.619307 -9.050769,3.095845 -2.456855,2.418407 -3.904674,4.482183 -4.072563,7.960334 -0.178241,3.692628 1.182722,6.009605 3.594321,8.538023 2.041859,2.140765 3.727143,3.079101 6.426362,3.578077 5.342294,0.987577 10.240688,-1.539275 12.887477,-6.648044 0.824558,-1.591536 1.005251,-2.384129 1.005329,-4.409722 4.9e-5,-1.358195 -0.115002,-2.985382 -0.255673,-3.615973 -0.219844,-0.985508 -0.160242,-1.146527 0.424392,-1.146527 0.485454,0 0.785322,0.378691 1.047545,1.322916 1.192862,4.295288 -0.653453,9.788113 -4.389306,13.058271 -2.720002,2.380936 -7.516146,3.639061 -11.052174,2.899205 z"
       id="path2626"
       inkscape:connector-curvature="0"
       sodipodi:nodetypes="ssssscssssscccscss"
       inkscape:export-xdpi="192.61934"
       inkscape:export-ydpi="192.61934" />
    <path
       style="fill:#333333;stroke-width:0.35277778;fill-opacity:1"
       d="m 55.717765,91.168531 c -2.019328,-0.78233 -3.926114,-2.498143 -4.898048,-4.407482 -1.239327,-2.434629 -1.435201,-4.414626 -0.692546,-7.000641 1.07644,-3.748301 5.147954,-6.765012 8.67688,-6.42897 1.966953,0.187303 1.57653,1.129424 -0.576972,1.392283 -2.508706,0.306215 -4.20527,1.209215 -5.448777,2.900122 -4.151347,5.644957 -0.07464,13.083707 6.855403,12.50901 3.656196,-0.303198 6.344715,-2.907721 7.00987,-6.790863 0.413639,-2.414809 0.587697,-2.652426 1.307561,-1.785041 0.531826,0.64081 0.236421,2.520326 -0.749138,4.766367 -1.455737,3.317561 -4.001685,4.984238 -7.890708,5.165566 -1.405979,0.06556 -2.953529,-0.0724 -3.593525,-0.320351 z"
       id="path2624"
       inkscape:connector-curvature="0"
       inkscape:export-xdpi="192.61934"
       inkscape:export-ydpi="192.61934" />
    <path
       style="fill:#333333;stroke-width:0.35277778;fill-opacity:1"
       d="m 56.277475,86.981712 c -2.606425,-1.511628 -3.421193,-4.993206 -1.742248,-7.444784 1.428923,-2.086501 4.952452,-3.281971 4.952452,-1.680279 0,0.496111 -0.235624,0.705947 -0.79375,0.706874 -2.549132,0.0042 -4.32565,2.907211 -3.286314,5.370108 1.472381,3.489081 6.247704,2.955741 7.262,-0.811068 0.489747,-1.818781 1.404175,-1.881131 1.404175,-0.09574 0,3.53567 -4.544342,5.84091 -7.796315,3.95489 z"
       id="path2622"
       inkscape:connector-curvature="0"
       inkscape:export-xdpi="192.61934"
       inkscape:export-ydpi="192.61934" />
    <path
       id="path2585-5"
       style="fill:#333333;fill-opacity:1;stroke:none;stroke-width:0.35277778;stroke-opacity:1"
       d="m 103.55819,97.837085 c -0.10744,-0.280004 -0.14665,-1.363298 -0.0871,-2.407324 0.0928,-1.626965 0.20906,-1.898227 0.81379,-1.898227 0.63304,0 0.70556,0.235187 0.70556,2.288223 0,1.900289 -0.10485,2.30842 -0.61843,2.407323 -0.34014,0.0655 -0.70634,-0.109992 -0.81379,-0.389995 z M 93.407537,95.236626 c -0.129352,-0.12935 -0.235185,-0.379921 -0.235185,-0.556825 0,-0.507513 2.824736,-3.088544 3.380174,-3.088544 0.921636,0 0.513273,1.255335 -0.837409,2.574237 -1.319197,1.288161 -1.846014,1.532699 -2.30758,1.071132 z m 19.241043,-1.277472 c -0.81651,-0.831963 -1.48456,-1.705088 -1.48456,-1.940278 0,-0.93659 1.40152,-0.34054 2.82148,1.199942 1.1681,1.267234 1.39283,1.695598 1.01507,1.934877 -0.71944,0.455708 -0.74527,0.442584 -2.35199,-1.194541 z m -10.12762,-3.665897 c -4.043511,-0.904473 -10.20103,-4.089196 -11.245319,-5.816181 -0.484195,-0.800731 0.13172,-1.487113 2.955044,-3.293114 4.402024,-2.815855 8.787125,-4.060168 11.874005,-3.369356 2.35491,0.527006 5.75044,1.849146 7.6546,2.980517 1.64907,0.979808 3.75473,2.835308 3.75473,3.308658 0,0.520199 -3.84895,3.204002 -6.14173,4.282525 -3.36587,1.583298 -6.89712,2.344078 -8.85133,1.906951 z m 4.3044,-2.215498 c 1.15759,-0.70582 2.08819,-2.113022 2.22575,-3.365669 0.22302,-2.03073 -0.0413,-2.790757 -1.42973,-4.111567 -1.22612,-1.166386 -1.65124,-1.356489 -3.03349,-1.356489 -2.24067,0 -3.90142,0.879089 -4.730359,2.503937 -0.883729,1.732251 -0.869079,2.898569 0.0571,4.546486 1.316369,2.342159 4.603159,3.19031 6.910729,1.783302 z m -8.716209,-1.782074 c -0.433329,-0.809682 -0.332123,-3.950106 0.162849,-5.053107 0.243525,-0.542664 -0.04553,-0.477676 -1.788295,0.402071 -1.143326,0.577148 -2.458712,1.357015 -2.923077,1.733034 l -0.844301,0.683676 1.031798,0.734706 c 1.438934,1.024611 4.445883,2.596681 4.62471,2.417854 0.08159,-0.08159 -0.03707,-0.494795 -0.263684,-0.918234 z M 112.39916,86.13606 c 3.10681,-1.737424 3.29325,-2.048292 1.86899,-3.116393 -1.07887,-0.80909 -3.91198,-2.364522 -4.3068,-2.364522 -0.0948,0 0.0576,0.550527 0.33872,1.223392 0.28114,0.672866 0.51117,1.630464 0.51117,2.127997 0,0.497533 -0.23003,1.455131 -0.51117,2.127998 -0.28114,0.672864 -0.41545,1.223391 -0.29848,1.223391 0.11697,0 1.19588,-0.549839 2.39757,-1.221863 z M 94.441897,75.034125 c -0.911998,-0.896614 -1.302515,-1.54533 -1.157603,-1.922972 0.12028,-0.313443 0.379635,-0.569897 0.576347,-0.569897 0.624949,0 3.628168,3.107877 3.384384,3.502327 -0.435192,0.704159 -1.421331,0.349033 -2.803128,-1.009458 z m 16.878173,1.002003 c -0.23387,-0.378407 2.53357,-3.494872 3.10347,-3.494872 0.15972,0 0.38607,0.249325 0.50301,0.554054 0.136,0.354412 -0.27514,1.053554 -1.141,1.940278 -1.38323,1.416554 -2.04291,1.684267 -2.46548,1.00054 z m -7.84509,-3.759455 c 0.0804,-1.83512 0.22568,-2.38125 0.63348,-2.38125 0.40781,0 0.55309,0.54613 0.63348,2.38125 0.097,2.213998 0.0525,2.38125 -0.63348,2.38125 -0.68597,0 -0.73046,-0.167252 -0.63348,-2.38125 z"
       inkscape:connector-curvature="0"
       sodipodi:nodetypes="csssccccssccssccsscsssscscccsccccccccsscccscscscccsccssccscscsc"
       inkscape:export-xdpi="192.61934"
       inkscape:export-ydpi="192.61934" />
    <path
       style="opacity:1;fill:#333333;fill-opacity:1;stroke:none;stroke-width:0.54754359;stroke-miterlimit:4;stroke-dasharray:none;stroke-opacity:1"
       d="m 141.77735,80.626086 c -0.47321,-0.364196 -1.18999,-1.493842 -1.19071,-1.876577 -10e-4,-0.504444 0.37226,-0.395314 1.08476,0.317185 0.64512,0.645125 0.9015,1.195944 0.74568,1.602032 -0.10699,0.2789 -0.23283,0.270512 -0.63973,-0.04264 z"
       id="path2696"
       inkscape:connector-curvature="0"
       inkscape:export-xdpi="192.61934"
       inkscape:export-ydpi="192.61934" />
    <path
       style="opacity:1;fill:#333333;fill-opacity:1;stroke:none;stroke-width:0.5269295;stroke-miterlimit:4;stroke-dasharray:none;stroke-opacity:1"
       d="m 145.24794,79.721326 c -0.32294,-0.92642 -0.0707,-2.488694 0.40177,-2.488694 0.32643,0 0.45924,0.393772 0.45078,1.336376 -0.006,0.702077 -0.32891,1.591374 -0.57729,1.591374 -0.0672,0 -0.19108,-0.197574 -0.27526,-0.439056 z"
       id="path2698"
       inkscape:connector-curvature="0"
       inkscape:export-xdpi="192.61934"
       inkscape:export-ydpi="192.61934" />
    <path
       style="fill:#333333;fill-opacity:1;stroke-width:0.35277778"
       d="m 145.6384,71.436122 c -0.51208,0.0072 -1.05254,0.297307 -1.65055,0.87023 -0.78877,0.7557 -1.0776,0.847138 -1.67173,0.529167 -1.35166,-0.72339 -2.17753,-0.466133 -2.72748,0.850077 -0.46544,1.113951 -0.65165,1.235067 -1.90169,1.235067 -1.61916,0 -1.93761,0.374655 -1.83245,2.156976 0.0702,1.189119 -0.0185,1.330174 -0.96893,1.538922 -1.64142,0.360522 -1.99101,1.008497 -1.44177,2.672705 0.44333,1.343321 0.42176,1.451462 -0.47646,2.389002 -1.16174,1.212609 -1.16203,1.301443 -0.004,2.374532 0.88542,0.820582 0.91389,0.946031 0.51315,2.283582 -0.50159,1.674159 -0.37188,1.957705 1.19838,2.613795 1.0576,0.441899 1.20092,0.665461 1.29862,2.023131 0.10915,1.517261 0.11858,1.526844 1.57407,1.632976 1.23873,0.09032 1.53005,0.265055 1.89032,1.134814 0.67886,1.638919 1.20946,1.908122 2.49649,1.266071 1.17612,-0.586729 1.62128,-0.482179 2.37143,0.557591 h -5.3e-4 c 0.68182,0.945078 2.01197,0.795994 2.82257,-0.316778 0.63177,-0.86728 0.7835,-0.916445 1.63349,-0.529166 1.60891,0.73307 2.30464,0.536501 2.86649,-0.80822 0.46618,-1.115748 0.65031,-1.234549 1.90996,-1.234549 1.61275,0 2.13061,-0.640895 1.87483,-2.321306 -0.14868,-0.97681 -0.0501,-1.119677 0.97565,-1.413867 1.65916,-0.47584 2.02243,-1.245568 1.30173,-2.756937 -0.58088,-1.218081 -0.57614,-1.249558 0.27853,-1.921846 1.10668,-0.870172 1.10994,-2.054582 0.009,-2.920754 -0.82938,-0.652388 -0.84117,-0.722387 -0.33072,-1.944066 0.66523,-1.59214 0.47288,-2.091756 -1.0511,-2.728515 -1.05894,-0.44245 -1.21492,-0.667383 -1.21492,-1.751833 0,-1.715839 -0.25753,-1.99626 -1.83244,-1.99626 -1.23996,0 -1.40887,-0.114165 -1.80971,-1.222663 -0.54909,-1.518492 -1.07181,-1.732651 -2.63498,-1.079522 -1.17322,0.490199 -1.26224,0.474491 -1.98438,-0.356049 -0.48489,-0.557676 -0.96845,-0.83352 -1.48053,-0.826307 z m 0.0951,0.995288 0.89141,0.891934 c 0.91135,0.91135 2.12089,1.170967 2.51148,0.538986 0.39762,-0.643369 1.5875,-0.397791 1.5875,0.327628 0,1.0371 0.97437,1.789038 2.3182,1.789038 1.14233,0 1.20923,0.06691 1.20923,1.209228 0,1.201981 0.72909,2.313591 1.52445,2.323891 1.10221,0.01431 1.32479,0.549511 0.77515,1.865003 -0.52584,1.258509 -0.51467,1.316286 0.45165,2.397786 l 0.99012,1.108459 -0.99994,0.99994 c -0.98403,0.984038 -0.99148,1.021035 -0.45165,2.313035 0.55905,1.33799 0.3418,1.873858 -0.76533,1.888257 -0.79536,0.01032 -1.52445,1.121394 -1.52445,2.323372 0,1.15592 -0.0565,1.209747 -1.28364,1.209747 -1.34593,0 -2.21234,0.718423 -2.23294,1.852083 -0.0132,0.727329 -0.42755,0.76731 -2.01073,0.194821 -1.07365,-0.388231 -1.24773,-0.345633 -2.15542,0.523997 l -0.98702,0.945679 -0.93793,-0.937927 c -0.89192,-0.891919 -1.01,-0.916385 -2.40244,-0.499195 -1.66659,0.499322 -1.54279,0.55186 -1.99213,-0.84491 -0.30654,-0.952899 -0.50541,-1.069035 -2.00039,-1.166336 l -1.13171,-0.108003 -0.3111,-1.160653 c 0.24586,-1.3105 -0.37352,-2.182026 -1.80557,-2.541447 -1.01503,-0.254759 -0.98576,-0.09801 -0.31678,-1.699122 0.53375,-1.277419 0.52691,-1.307095 -0.54002,-2.374014 l -1.08003,-1.080037 0.93792,-0.80667 c 0.9438,-0.81099 1.03933,-1.783918 0.3359,-3.424597 -0.1953,-0.45552 -0.0414,-0.656783 0.62994,-0.825272 1.35886,-0.341051 2.07739,-1.334847 1.87844,-2.597259 -0.1655,-1.05016 -0.12419,-1.090538 1.12086,-1.095539 1.62811,-0.0068 2.05551,-0.282205 2.36729,-1.524455 0.2587,-1.030751 0.20462,-1.022136 2.48254,-0.387056 0.49231,0.13725 1.09659,-0.09864 1.82625,-0.712618 z"
       id="path2693"
       inkscape:connector-curvature="0"
       sodipodi:nodetypes="cccsscccccccccccccccsscccccscsscssscscsssccccsccssccccccsccccccccccccccccs"
       inkscape:export-xdpi="192.61934"
       inkscape:export-ydpi="192.61934" />
    <path
       style="opacity:1;fill:#064273;fill-opacity:1;stroke:none;stroke-width:0.61957997;stroke-miterlimit:4;stroke-dasharray:none;stroke-opacity:1"
       d="m 103.45671,87.144505 c -1.78344,-0.847723 -2.37699,-1.654358 -2.37699,-3.230377 0,-0.928126 0.3936,-1.816622 1.09152,-2.464017 1.97313,-1.830273 4.47793,-1.109503 5.36689,1.544347 0.33699,2.916769 -1.12996,4.958479 -4.08142,4.150047 z m 1.78114,-2.241492 c 1.21724,-0.957491 -0.27511,-2.77364 -1.68151,-2.046364 -0.45482,0.235197 -0.50944,0.34211 -0.50944,0.996928 0,0.514907 0.0977,0.831175 0.32785,1.06133 0.43091,0.430908 1.30728,0.425307 1.8631,-0.01215 z"
       id="path2667"
       inkscape:connector-curvature="0"
       sodipodi:nodetypes="cscccccsccc"
       inkscape:export-xdpi="192.61934"
       inkscape:export-ydpi="192.61934" />
    <path
       style="opacity:1;fill:#064273;fill-opacity:1;stroke:none;stroke-width:0.43195975;stroke-miterlimit:4;stroke-dasharray:none;stroke-opacity:1"
       d="m 58.620111,82.851799 c -0.184166,-0.221906 0.298112,-0.923607 1.650262,-2.401088 2.21732,-2.422835 2.537016,-2.901688 2.846914,-4.264216 0.09804,-0.431048 0.325078,-1.040659 0.504526,-1.354687 0.655812,-1.147649 3.589716,-3.988126 4.048173,-3.919265 0.360553,0.05415 0.64358,0.55042 0.769667,1.349549 0.06436,0.407866 0.191688,0.798409 0.282964,0.867878 0.09128,0.06947 0.559679,0.156081 1.04089,0.192477 1.075787,0.08136 1.321331,0.254436 1.01792,0.7175 -0.722743,1.103048 -3.52812,3.824086 -4.339642,4.209176 -0.21784,0.103373 -0.759114,0.233535 -1.202828,0.289251 -1.192638,0.149751 -1.560602,0.404035 -4.255034,2.940439 -1.492764,1.405218 -2.062449,1.736108 -2.363812,1.372986 z m 8.099346,-6.60209 c 1.051696,-0.589108 1.599271,-1.01043 1.599271,-1.253497 0,-0.136801 -0.16533,-0.300763 -0.449403,-0.445686 -0.509209,-0.259778 -0.5867,-0.355732 -0.687387,-0.851148 -0.05213,-0.256472 -0.144971,-0.363369 -0.339926,-0.391369 -0.208196,-0.02991 -0.46608,0.162822 -1.152411,0.861237 -0.486307,0.494869 -0.464558,1.114462 -0.598429,1.37687 -1.976607,3.465654 -1.750371,2.596147 1.628285,0.703593 z"
       id="path2669"
       inkscape:connector-curvature="0"
       inkscape:export-xdpi="192.61934"
       inkscape:export-ydpi="192.61934"
       sodipodi:nodetypes="cccsccccsccccsssccscs" />
    <path
       style="opacity:1;fill:#333333;fill-opacity:1;stroke:none;stroke-width:0.50346053;stroke-miterlimit:4;stroke-dasharray:none;stroke-opacity:1"
       d="m 149.25489,81.067679 c -0.15176,-0.151763 -0.0996,-0.705297 0.10327,-1.097808 0.25788,-0.498695 1.11288,-1.236673 1.37406,-1.186 0.37302,0.07238 0.31755,0.320131 -0.26358,1.177118 -0.57158,0.842906 -1.04548,1.274993 -1.21378,1.10669 z"
       id="path2700"
       inkscape:connector-curvature="0"
       inkscape:export-xdpi="192.61934"
       inkscape:export-ydpi="192.61934" />
    <path
       style="opacity:1;fill:#064273;fill-opacity:1;stroke:none;stroke-width:0.65789473;stroke-miterlimit:4;stroke-dasharray:none;stroke-opacity:1"
       d="m 142.42112,88.56125 c -2.23834,-2.28304 -3.13197,-3.30622 -3.03587,-3.47602 0.0749,-0.13235 0.76283,-0.95167 1.52872,-1.82072 l 1.39255,-1.58009 3.22352,-0.002 3.22352,-0.002 1.7355,1.74203 1.7355,1.74204 -3.31569,3.31568 -3.31569,3.31569 z m 3.99039,-0.14648 c 0.38204,-0.7962 0.71134,-1.67742 0.73177,-1.95827 l 0.0371,-0.51063 -1.36553,-0.0511 c -1.54818,-0.058 -1.92362,0.10836 -1.68157,0.74502 0.29841,0.78487 1.44272,3.22265 1.51273,3.22265 0.039,0 0.38342,-0.65144 0.76546,-1.44763 z m 2.73259,-1.29394 1.09885,-1.17496 -0.55446,-0.0563 c -1.1615,-0.11803 -1.64508,0.33247 -1.97646,1.84124 -0.19289,0.87822 0.19471,0.71313 1.43207,-0.60994 z m -5.358,0.90807 c 0,-0.31181 -0.9268,-1.83989 -1.2068,-1.98974 -0.423,-0.22638 -1.23016,-0.23559 -1.23016,-0.014 0,0.28344 1.86866,2.0966 2.16078,2.0966 0.15189,0 0.27618,-0.0418 0.27618,-0.0928 z m -0.80572,-3.78019 c 0.5072,-0.66656 0.73715,-1.43735 0.4768,-1.59825 -0.3758,-0.23226 -1.52477,0.6422 -2.44305,1.85935 -0.21146,0.28028 -0.15928,0.30462 0.65298,0.30462 0.79162,0 0.92725,-0.0584 1.31327,-0.56572 z m 4.28421,0.2611 c -0.002,-0.16754 -0.1798,-0.61794 -0.39606,-1.00089 -0.34631,-0.61323 -0.47817,-0.70252 -1.10563,-0.74867 -0.61619,-0.0453 -0.77431,0.0211 -1.17055,0.49204 -0.48438,0.57565 -0.60478,1.29988 -0.24053,1.44686 0.11967,0.0483 0.82464,0.094 1.56661,0.10154 1.17501,0.012 1.34866,-0.0256 1.34616,-0.29088 z m 2.83889,-0.31258 c -0.54857,-0.6965 -1.93427,-1.68564 -2.16321,-1.54415 -0.39898,0.24658 0.008,1.39079 0.69143,1.94377 0.1479,0.11967 0.64893,0.21758 1.1134,0.21758 h 0.84449 z"
       id="path2702"
       inkscape:connector-curvature="0"
       inkscape:export-xdpi="192.61934"
       inkscape:export-ydpi="192.61934" />
  </g>
</svg>
