<!-- Created with Inkscape (http://www.inkscape.org/) -->
<svg width="26.8mm" height="26.373mm" version="1.1" viewBox="0 0 26.8 26.373" xmlns="http://www.w3.org/2000/svg">
 <g transform="translate(-45.377 -69.328)">
  <path d="m58.199 95.349c-0.09841-0.25646-0.13432-1.2486-0.07977-2.2049 0.08499-1.4901 0.19148-1.7386 0.74535-1.7386 0.5798 0 0.64622 0.21541 0.64622 2.0958 0 1.7405-0.09603 2.1143-0.56642 2.2049-0.31153 0.05999-0.64694-0.10074-0.74535-0.3572zm-9.297-2.3818c-0.11847-0.11847-0.21541-0.34797-0.21541-0.50999 0-0.46483 2.5872-2.8288 3.0959-2.8288 0.84413 0 0.47011 1.1498-0.76698 2.3577-1.2083 1.1798-1.6908 1.4038-2.1135 0.98105zm17.623-1.17c-0.74784-0.76199-1.3597-1.5617-1.3597-1.7771 0-0.85782 1.2836-0.3119 2.5842 1.099 1.0699 1.1607 1.2757 1.553 0.9297 1.7722-0.65893 0.41738-0.68259 0.40536-2.1542-1.0941zm-9.2759-3.3576c-3.7034-0.82841-9.3431-3.7453-10.3-5.327-0.44347-0.73339 0.12064-1.362 2.7065-3.0162 4.0318-2.579 8.0481-3.7187 10.875-3.086 2.1569 0.48268 5.2668 1.6936 7.0108 2.7299 1.5104 0.8974 3.439 2.5969 3.439 3.0304 0 0.47645-3.5252 2.9345-5.6252 3.9224-3.0828 1.4501-6.3171 2.1469-8.1069 1.7466zm3.9424-2.0292c1.0602-0.64646 1.9126-1.9353 2.0386-3.0826 0.20426-1.8599-0.03783-2.556-1.3095-3.7658-1.123-1.0683-1.5124-1.2424-2.7784-1.2424-2.0522 0-3.5733 0.80516-4.3325 2.2934-0.80941 1.5866-0.79599 2.6548 0.05231 4.1641 1.2057 2.1452 4.216 2.922 6.3295 1.6333zm-7.9832-1.6322c-0.39689-0.74159-0.30419-3.6179 0.14915-4.6281 0.22304-0.49703-0.0417-0.4375-1.6379 0.36826-1.0472 0.52861-2.2519 1.2429-2.6772 1.5873l-0.77329 0.62618 0.94502 0.67292c1.3179 0.93844 4.072 2.3783 4.2358 2.2145 0.07473-0.07473-0.03395-0.45318-0.24151-0.84101zm13.088-0.1462c2.8455-1.5913 3.0163-1.876 1.7118-2.8543-0.98814-0.74104-3.583-2.1657-3.9446-2.1657-0.08683 0 0.05276 0.50423 0.31023 1.1205 0.2575 0.61628 0.46818 1.4933 0.46818 1.949 0 0.45569-0.21068 1.3328-0.46818 1.949-0.2575 0.61627-0.38051 1.1205-0.27338 1.1205 0.10713 0 1.0953-0.5036 2.1959-1.1191zm-16.447-10.168c-0.8353-0.82121-1.193-1.4154-1.0602-1.7612 0.11016-0.28708 0.34771-0.52197 0.52788-0.52197 0.57239 0 3.323 2.8465 3.0998 3.2078-0.39859 0.64494-1.3018 0.31968-2.5674-0.92456zm15.459 0.91773c-0.2142-0.34658 2.3205-3.2009 2.8425-3.2009 0.14629 0 0.3536 0.22836 0.4607 0.50746 0.12456 0.32461-0.252 0.96495-1.045 1.7771-1.2669 1.2974-1.8711 1.5426-2.2581 0.91639zm-7.1853-3.4433c0.07363-1.6808 0.2067-2.181 0.5802-2.181 0.37351 0 0.50658 0.5002 0.5802 2.181 0.08883 2.0278 0.04809 2.181-0.5802 2.181-0.62828 0-0.66903-0.15318-0.5802-2.181z" fill="#333"/>
  <path d="m58.106 85.555c-1.6334-0.77643-2.1771-1.5152-2.1771-2.9587 0-0.85007 0.3605-1.6638 0.99972-2.2568 1.8072-1.6763 4.1013-1.0162 4.9155 1.4145 0.30865 2.6715-1.0349 4.5415-3.7382 3.801zm1.6313-2.053c1.1149-0.87696-0.25197-2.5404-1.5401-1.8743-0.41657 0.21542-0.4666 0.31334-0.4666 0.91308 0 0.4716 0.08949 0.76127 0.30028 0.97207 0.39467 0.39467 1.1973 0.38954 1.7064-0.01114z" fill="#064273"/>
 </g>
</svg>
