<?xml version="1.0" standalone="no"?>
<!DOCTYPE svg PUBLIC "-//W3C//DTD SVG 20010904//EN"
 "http://www.w3.org/TR/2001/REC-SVG-20010904/DTD/svg10.dtd">
<svg version="1.0" xmlns="http://www.w3.org/2000/svg"
 width="1094.000000pt" height="1094.000000pt" viewBox="0 0 1094.000000 1094.000000"
 preserveAspectRatio="xMidYMid meet">
<metadata>
Created by potrace 1.11, written by Peter Selinger 2001-2013
</metadata>
<g transform="translate(0.000000,1094.000000) scale(0.100000,-0.100000)"
fill="#000000" stroke="none">
<path d="M1077 7033 l-1077 -1077 1374 -1375 1375 -1375 293 -1 c161 -1 296 0
300 2 4 2 -609 620 -1363 1374 -753 754 -1369 1374 -1369 1377 0 3 480 487
1068 1074 587 588 1069 1071 1071 1073 2 3 -131 5 -296 5 l-299 0 -1077 -1077z"/>
<path d="M8191 8105 c2 -2 484 -485 1072 -1072 587 -588 1067 -1072 1067
-1075 0 -4 -616 -623 -1369 -1377 -930 -930 -1364 -1370 -1352 -1373 9 -2 143
-3 299 -3 l283 1 1375 1375 1375 1375 -1077 1077 -1077 1077 -300 0 c-165 0
-298 -2 -296 -5z"/>
<path d="M6262 7131 l-712 -715 -713 712 c-392 391 -715 712 -719 712 -14 0
-1675 -1669 -1664 -1672 6 -2 141 -3 299 -3 l288 1 538 538 539 539 704 -705
c388 -388 711 -708 719 -711 9 -3 277 258 726 706 l712 711 539 -539 538 -539
297 0 c163 -1 297 1 297 4 0 3 -377 381 -837 841 l-838 835 -713 -715z"/>
<path d="M2812 5271 c6 -9 31 -33 57 -55 25 -21 69 -59 97 -85 47 -43 159
-142 208 -184 12 -10 41 -37 66 -60 25 -23 86 -78 135 -122 50 -44 92 -82 95
-85 3 -3 46 -41 95 -85 50 -44 95 -84 101 -90 35 -31 169 -152 184 -165 75
-66 245 -218 290 -260 9 -8 52 -46 96 -85 43 -38 84 -74 90 -80 8 -8 106 -96
188 -170 6 -5 49 -44 96 -85 47 -41 90 -79 96 -85 19 -18 167 -151 269 -241
55 -49 107 -96 115 -104 8 -8 35 -33 60 -54 47 -41 140 -124 300 -268 l95 -86
25 18 c14 11 46 38 71 62 25 24 61 57 80 73 75 66 414 370 419 375 3 3 43 39
90 80 47 41 102 91 123 110 22 19 51 46 66 59 14 13 42 37 61 55 19 17 96 85
170 151 74 66 144 129 156 140 20 19 117 106 219 196 55 48 121 108 139 125
12 11 385 344 430 384 16 14 36 32 45 40 9 9 56 52 105 95 50 44 97 87 107 95
46 42 93 84 184 166 55 49 105 93 111 99 6 5 41 37 77 69 37 33 67 63 67 66 0
4 -141 7 -313 6 l-314 -1 -67 -60 c-38 -33 -78 -69 -90 -80 -89 -81 -205 -184
-281 -251 -49 -43 -97 -86 -105 -94 -8 -8 -53 -49 -100 -90 -47 -41 -87 -77
-90 -80 -3 -3 -43 -39 -90 -80 -46 -41 -91 -82 -100 -90 -21 -20 -159 -144
-186 -167 -17 -14 -86 -76 -188 -168 -6 -5 -54 -48 -106 -95 -52 -47 -97 -87
-100 -90 -3 -3 -41 -37 -85 -75 -44 -39 -82 -73 -85 -76 -3 -3 -51 -47 -108
-98 -145 -129 -168 -150 -226 -202 -28 -26 -65 -58 -82 -72 l-30 -26 -55 53
c-30 29 -76 72 -104 96 -27 23 -72 63 -100 89 -27 25 -108 98 -180 161 -71 63
-139 124 -150 135 -12 11 -57 51 -100 90 -44 38 -87 76 -96 85 -16 15 -29 27
-134 119 -27 24 -75 67 -105 95 -30 28 -93 85 -140 126 -72 64 -120 107 -174
155 -6 6 -49 44 -95 85 -47 41 -92 82 -101 90 -8 8 -49 44 -89 80 -41 36 -84
74 -95 85 -12 11 -62 56 -111 99 -50 44 -95 85 -100 90 -6 6 -48 45 -94 86
l-85 75 -317 1 c-289 1 -316 0 -307 -15z"/>
</g>
</svg>
