<?xml version="1.0" encoding="UTF-8" standalone="no"?>
<svg
   xmlns:dc="http://purl.org/dc/elements/1.1/"
   xmlns:cc="http://creativecommons.org/ns#"
   xmlns:rdf="http://www.w3.org/1999/02/22-rdf-syntax-ns#"
   xmlns:svg="http://www.w3.org/2000/svg"
   xmlns="http://www.w3.org/2000/svg"
   xmlns:sodipodi="http://sodipodi.sourceforge.net/DTD/sodipodi-0.dtd"
   xmlns:inkscape="http://www.inkscape.org/namespaces/inkscape"
   width="184.72mm"
   height="30.521mm"
   version="1.1"
   viewBox="0 0 184.72 30.521"
   id="svg849"
   sodipodi:docname="artomatica-logo-propercase.svg"
   inkscape:version="0.92.4 (5da689c313, 2019-01-14)">
  <metadata
     id="metadata855">
    <rdf:RDF>
      <cc:Work
         rdf:about="">
        <dc:format>image/svg+xml</dc:format>
        <dc:type
           rdf:resource="http://purl.org/dc/dcmitype/StillImage" />
        <dc:title></dc:title>
      </cc:Work>
    </rdf:RDF>
  </metadata>
  <defs
     id="defs853" />
  <sodipodi:namedview
     pagecolor="#ffffff"
     bordercolor="#666666"
     borderopacity="1"
     objecttolerance="10"
     gridtolerance="10"
     guidetolerance="10"
     inkscape:pageopacity="0"
     inkscape:pageshadow="2"
     inkscape:window-width="1548"
     inkscape:window-height="639"
     id="namedview851"
     showgrid="false"
     inkscape:zoom="1.36"
     inkscape:cx="349.07717"
     inkscape:cy="57.67748"
     inkscape:window-x="2085"
     inkscape:window-y="244"
     inkscape:window-maximized="0"
     inkscape:current-layer="g845" />
  <g
     transform="matrix(.91476 0 0 .91476 -6.2938 -22.315)"
     id="g847">
    <g
       transform="matrix(2.1159,0,0,-2.1159,-47.984,220.74)"
       id="g845">
      <g
         transform="matrix(.6819 0 0 .6819 35.076 78.333)"
         id="g817">
        <path
           d="m0 0-10.998 10.998 8.61 8.609h-2.416l-8.61-8.609 11.002-11.002h2.408z"
           fill="#333"
           id="path815" />
      </g>
      <g
         transform="matrix(.6819 0 0 .6819 46.625 78.333)"
         id="g821">
        <path
           d="m0 0 10.998 10.998-8.609 8.609h2.416l8.609-8.609-11.002-11.002h-2.408z"
           fill="#333"
           id="path819" />
      </g>
      <g
         transform="translate(0 -1.0936)"
         fill="#064273"
         id="g839">
        <g
           transform="matrix(.6819 0 0 .6819 37.161 92.08)"
           id="g825">
          <path
             d="m0 0-6.72-6.72h2.416l4.304 4.304 4.305-4.304 1.419-1.419v2.416z"
             fill="#064273"
             id="path823" />
        </g>
        <g
           transform="matrix(.6819 0 0 .6819 35.293 85.099)"
           id="g829">
          <path
             d="m0 0h-2.562l11.025-9.865v2.292z"
             fill="#064273"
             id="path827" />
        </g>
        <g
           transform="matrix(.6819 0 0 .6819 44.967 92.08)"
           id="g833">
          <path
             d="m0 0 6.72-6.72h-2.416l-4.304 4.304-4.305-4.304-1.419-1.419v2.416z"
             fill="#064273"
             id="path831" />
        </g>
        <g
           transform="matrix(.6819 0 0 .6819 46.835 85.099)"
           id="g837">
          <path
             d="m0 0h2.562l-11.025-9.865v2.292z"
             fill="#064273"
             id="path835" />
        </g>
      </g>
      <text
         transform="scale(1.0014693,-0.99853286)"
         x="58.191437"
         y="-78.523956"
         font-size="10.277px"
         letter-spacing="0px"
         word-spacing="0px"
         style="font-size:11.59181118px;line-height:1.25;font-family:overpass;letter-spacing:0px;word-spacing:0px;fill:#333333;stroke-width:0.28978965"
         xml:space="preserve"
         id="text843"><tspan
           x="58.191437"
           y="-78.523956"
           font-size="9.3367px"
           id="tspan841"
           style="font-size:10.53121281px;font-family:Bahnschrift;fill:#333333;stroke-width:0.28978965">Artomatica</tspan></text>
    </g>
  </g>
</svg>
